#!OML:ASF E:\emotionWalksFemale\Project 1\Capture day 1\Session 1\Female1.ASF
:FULLY-SPECIFIED
:DEGREES
223
root 8.44746 15.5534 23.1943 -178.25 1.73357 -179.768
lowerback 8.1393 0.818063 0.566708
upperback -4.12381 1.22332 -0.00968423
thorax -8.93483 0.584885 -0.525128
lowerneck -7.75287 -2.04035 -5.61321
upperneck 9.04015 -2.79444 5.96179
head 4.12873 -1.29485 2.57709
rclavicle 2.86918e-015 -3.10601e-016
rhumerus -47.6712 18.0391 -96.6538
rradius 33.8488
rwrist 26.4622
rhand -7.27219 -53.9205
rfingers 7.12502
rthumb -161.391 -263.05
lclavicle 2.86918e-015 -3.10601e-016
lhumerus -44.0272 -5.04311 87.0823
lradius 31.2976
lwrist -15.9666
lhand 8.40203 -33.1003
lfingers 7.12502
lthumb 33.6092 -6.23063
rfemur -1.80796 15.9845 26.0648
rtibia 15.4837
rfoot -16.0438 -28.8284
rtoes 1.46586
lfemur -6.88897 -19.5113 -24.5932
ltibia 21.0996
lfoot -20.626 18.6355
ltoes -20.2902
224
root 8.44882 15.5551 23.2004 -178.131 1.65468 -179.832
lowerback 8.16878 0.785057 0.502053
upperback -4.14264 1.16988 -0.0365073
thorax -8.97395 0.561782 -0.509655
lowerneck -7.67481 -2.01481 -5.46327
upperneck 8.92449 -2.76531 5.8724
head 4.07564 -1.2808 2.52715
rclavicle -1.9234e-015 -2.36057e-015
rhumerus -47.6096 17.9764 -96.55
rradius 33.8144
rwrist 26.5954
rhand -6.92179 -54.1039
rfingers 7.12502
rthumb -161.054 -263.201
lclavicle -1.9234e-015 -2.36057e-015
lhumerus -43.996 -4.94488 86.9068
lradius 31.2193
lwrist -16.1071
lhand 7.99208 -33.6064
lfingers 7.12502
lthumb 33.2195 -6.65277
rfemur -1.94981 15.9214 25.963
rtibia 15.4494
rfoot -16.0014 -28.7995
rtoes 2.03897
lfemur -7.10546 -19.4517 -24.5797
ltibia 21.1658
lfoot -20.6365 18.4489
ltoes -20.239
225
root 8.44845 15.5554 23.2048 -178.066 1.68244 -179.77
lowerback 8.02787 0.769926 0.605991
upperback -4.00631 1.1553 -0.031908
thorax -8.74102 0.548308 -0.556457
lowerneck -7.60402 -2.001 -5.44796
upperneck 8.61237 -2.73317 5.89153
head 3.96737 -1.26218 2.53282
rclavicle 2.92198e-015 -2.60905e-016
rhumerus -47.2821 18.0473 -96.426
rradius 33.7158
rwrist 26.4706
rhand -5.15393 -55.0772
rfingers 7.12502
rthumb -159.354 -263.999
lclavicle 2.92198e-015 -2.60905e-016
lhumerus -43.7858 -4.60861 86.6193
lradius 31.1627
lwrist -16.4694
lhand 7.8218 -33.1692
lfingers 7.12502
lthumb 33.0576 -6.18116
rfemur -2.02515 15.9616 26.0077
rtibia 15.4099
rfoot -15.9757 -28.7696
rtoes 2.36501
lfemur -7.24883 -19.3404 -24.4786
ltibia 21.2473
lfoot -20.5544 18.4428
ltoes -20.987
226
root 8.44832 15.5554 23.2089 -178.015 1.67029 -179.662
lowerback 7.51164 0.742655 0.795011
upperback -3.60938 1.119 -0.0484576
thorax -8.00639 0.520317 -0.660389
lowerneck -7.67103 -2.00078 -5.46428
upperneck 8.03596 -2.70336 6.03198
head 3.80436 -1.23561 2.5798
rclavicle 9.38248e-015 1.32937e-015
rhumerus -46.4638 18.0768 -96.1414
rradius 33.5704
rwrist 26.5658
rhand -6.67764 -54.4317
rfingers 7.12502
rthumb -160.819 -263.506
lclavicle 9.38248e-015 1.32937e-015
lhumerus -43.2109 -4.60949 86.3722
lradius 31.2314
lwrist -16.4079
lhand 8.1666 -31.6775
lfingers 7.12502
lthumb 33.3854 -4.75946
rfemur -2.08272 16.0224 26.1149
rtibia 15.3816
rfoot -16.0617 -28.8333
rtoes 2.51191
lfemur -7.38227 -19.2867 -24.3275
ltibia 21.3304
lfoot -20.5218 18.4189
ltoes -21.207
227
root 8.4482 15.5566 23.2116 -177.922 1.57003 -179.636
lowerback 7.62223 0.703589 0.831347
upperback -3.64286 1.07123 -0.0632725
thorax -8.10679 0.493932 -0.691846
lowerneck -7.66537 -2.00742 -5.42757
upperneck 7.88183 -2.71256 6.07725
head 3.75748 -1.2366 2.58712
rclavicle 9.58748e-015 3.65888e-015
rhumerus -46.2932 17.8051 -95.8606
rradius 33.4511
rwrist 27.2282
rhand -6.66141 -53.9609
rfingers 7.12502
rthumb -160.804 -263.033
lclavicle 9.58748e-015 3.65888e-015
lhumerus -43.2874 -4.71061 86.2328
lradius 31.3493
lwrist -16.2952
lhand 8.02715 -31.7937
lfingers 7.12502
lthumb 33.2528 -4.84723
rfemur -2.17609 16.0072 26.1258
rtibia 15.3521
rfoot -16.0048 -28.9233
rtoes 2.31347
lfemur -7.56392 -19.2884 -24.2381
ltibia 21.4154
lfoot -20.5371 18.2623
ltoes -20.7575
228
root 8.4484 15.558 23.2158 -177.866 1.48557 -179.676
lowerback 7.69406 0.642743 0.789801
upperback -3.61371 0.984635 -0.0521191
thorax -8.11953 0.453427 -0.64494
lowerneck -7.66845 -2.00536 -5.57168
upperneck 7.71943 -2.69573 6.20866
head 3.71156 -1.2255 2.65201
rclavicle -2.68718e-015 5.5287e-016
rhumerus -46.1439 17.7008 -95.6267
rradius 33.3665
rwrist 27.5792
rhand -6.16363 -53.8258
rfingers 7.12502
rthumb -160.325 -262.85
lclavicle -2.68718e-015 5.5287e-016
lhumerus -43.1724 -4.28046 85.9381
lradius 31.2286
lwrist -16.6522
lhand 7.46235 -33.0645
lfingers 7.12502
lthumb 32.7157 -6.00469
rfemur -2.24621 15.9564 26.0703
rtibia 15.3514
rfoot -15.8933 -28.9331
rtoes 2.19446
lfemur -7.68965 -19.2307 -24.2346
ltibia 21.4702
lfoot -20.4807 18.1294
ltoes -20.6874
229
root 8.44962 15.5592 23.2227 -177.812 1.48779 -179.7
lowerback 8.16806 0.606933 0.631378
upperback -3.8049 0.935566 0.0445403
thorax -8.60813 0.439357 -0.455454
lowerneck -7.64881 -1.97706 -5.83118
upperneck 7.8236 -2.64746 6.33783
head 3.74184 -1.20383 2.73729
rclavicle 7.63923e-015 2.5345e-015
rhumerus -46.4804 17.7563 -95.5171
rradius 33.4406
rwrist 27.6197
rhand -5.14091 -54.1375
rfingers 7.12502
rthumb -159.342 -263.058
lclavicle 7.63923e-015 2.5345e-015
lhumerus -43.3533 -3.7098 85.7101
lradius 31.0807
lwrist -17.142
lhand 6.96342 -32.9655
lfingers 7.12502
lthumb 32.2409 -5.80819
rfemur -2.36572 15.9435 26.026
rtibia 15.4183
rfoot -15.7937 -28.8804
rtoes 2.06245
lfemur -7.79332 -19.0922 -24.2137
ltibia 21.4756
lfoot -20.4015 18.028
ltoes -20.724
230
root 8.44999 15.5606 23.2264 -177.703 1.50608 -179.696
lowerback 7.95168 0.588077 0.642694
upperback -3.65851 0.90421 0.039179
thorax -8.32313 0.423445 -0.458172
lowerneck -7.71268 -1.95702 -5.78265
upperneck 7.66499 -2.60835 6.30686
head 3.70108 -1.182 2.72155
rclavicle -2.3893e-015 -4.47266e-016
rhumerus -46.1704 17.7021 -95.3228
rradius 33.361
rwrist 27.7874
rhand -4.49216 -54.3813
rfingers 7.12502
rthumb -158.719 -263.233
lclavicle -2.3893e-015 -4.47266e-016
lhumerus -42.9919 -3.51328 85.4449
lradius 30.9559
lwrist -17.2972
lhand 6.51624 -32.2639
lfingers 7.12502
lthumb 31.8151 -5.021
rfemur -2.56872 15.9449 25.9936
rtibia 15.5172
rfoot -15.7757 -28.8753
rtoes 1.64273
lfemur -7.94599 -19.013 -24.1494
ltibia 21.4663
lfoot -20.377 17.9286
ltoes -20.6542
231
root 8.44839 15.5614 23.2271 -177.604 1.56729 -179.711
lowerback 8.02751 0.592736 0.639044
upperback -3.69466 0.910772 0.028049
thorax -8.40632 0.426253 -0.470272
lowerneck -7.72117 -1.9293 -5.66301
upperneck 7.662 -2.57467 6.21215
head 3.69679 -1.16599 2.67472
rclavicle -1.24271e-014 -1.2424e-015
rhumerus -46.1482 17.5588 -95.1923
rradius 33.2666
rwrist 27.5651
rhand -4.81846 -54.4728
rfingers 7.12502
rthumb -159.032 -263.359
lclavicle -1.24271e-014 -1.2424e-015
lhumerus -42.8966 -3.48658 85.2502
lradius 30.824
lwrist -17.3007
lhand 6.48776 -32.0972
lfingers 7.12502
lthumb 31.788 -4.84897
rfemur -2.73194 15.9245 25.9316
rtibia 15.577
rfoot -15.9009 -28.8198
rtoes 1.62814
lfemur -8.06618 -19.033 -24.1347
ltibia 21.4757
lfoot -20.4029 17.9705
ltoes -20.739
232
root 8.44685 15.5623 23.2257 -177.55 1.70819 -179.714
lowerback 8.0276 0.632616 0.634772
upperback -3.66598 0.961778 0.0205466
thorax -8.3747 0.450833 -0.483182
lowerneck -7.73466 -1.93372 -5.60505
upperneck 7.58232 -2.57841 6.17979
head 3.67406 -1.16699 2.65492
rclavicle -4.34764e-015 -4.96962e-017
rhumerus -46.1291 17.546 -95.127
rradius 33.1747
rwrist 26.741
rhand -5.19527 -54.4986
rfingers 7.12502
rthumb -159.394 -263.425
lclavicle -4.34764e-015 -4.96962e-017
lhumerus -42.7625 -3.44302 85.041
lradius 30.7375
lwrist -17.3089
lhand 6.6678 -32.2645
lfingers 7.12502
lthumb 31.9594 -5.05043
rfemur -2.81956 15.9581 25.8925
rtibia 15.6119
rfoot -15.9243 -28.688
rtoes 1.92373
lfemur -8.10039 -19.0347 -24.1436
ltibia 21.4828
lfoot -20.3627 18.185
ltoes -21.2858
